<svg fill="none" height="1080" viewBox="0 0 1920 1080" width="1920" xmlns="http://www.w3.org/2000/svg" xmlns:xlink="http://www.w3.org/1999/xlink"><clipPath id="a"><path d="m0 0h1920v1080h-1920z"/></clipPath><g clip-path="url(#a)"><g fill="#fff"><circle cx="99" cy="158" r="4"/><circle cx="291" cy="158" r="4"/><circle cx="483" cy="158" r="4"/><circle cx="675" cy="158" r="4"/><circle cx="867" cy="158" r="4"/><circle cx="1059" cy="158" r="4"/><circle cx="1251" cy="158" r="4"/><circle cx="1443" cy="158" r="4"/><circle cx="1635" cy="158" r="4"/><circle cx="1827" cy="158" r="4"/><circle cx="99" cy="350" r="4"/><circle cx="291" cy="350" r="4"/><circle cx="483" cy="350" r="4"/><circle cx="675" cy="350" r="4"/><circle cx="867" cy="350" r="4"/><circle cx="1059" cy="350" r="4"/><circle cx="1251" cy="350" r="4"/><circle cx="1443" cy="350" r="4"/><circle cx="1635" cy="350" r="4"/><circle cx="1827" cy="350" r="4"/><circle cx="99" cy="542" r="4"/><circle cx="291" cy="542" r="4"/><circle cx="483" cy="542" r="4"/><circle cx="675" cy="542" r="4"/><circle cx="867" cy="542" r="4"/><circle cx="1059" cy="542" r="4"/><circle cx="1251" cy="542" r="4"/><circle cx="1443" cy="542" r="4"/><circle cx="1635" cy="542" r="4"/><circle cx="1827" cy="542" r="4"/><circle cx="99" cy="734" r="4"/><circle cx="291" cy="734" r="4"/><circle cx="483" cy="734" r="4"/><circle cx="675" cy="734" r="4"/><circle cx="867" cy="734" r="4"/><circle cx="1059" cy="734" r="4"/><circle cx="1251" cy="734" r="4"/><circle cx="1443" cy="734" r="4"/><circle cx="1635" cy="734" r="4"/><circle cx="1827" cy="734" r="4"/><circle cx="99" cy="926" r="4"/><circle cx="291" cy="926" r="4"/><circle cx="483" cy="926" r="4"/><circle cx="675" cy="926" r="4"/><circle cx="867" cy="926" r="4"/><circle cx="1059" cy="926" r="4"/><circle cx="1251" cy="926" r="4"/><circle cx="1443" cy="926" r="4"/><circle cx="1635" cy="926" r="4"/><circle cx="1827" cy="926" r="4"/></g><path d="m-97 158.5h2062" stroke="#fff"/><path d="m-97 350.5h2062" stroke="#fff"/><path d="m-97 542.5h2062" stroke="#fff"/><path d="m-97 734.5h2062" stroke="#fff"/><path d="m-97 926.5h2062" stroke="#fff"/><path d="m98.5-77-.0001 1192" stroke="#fff"/><path d="m290.5-77v1192" stroke="#fff"/><path d="m482.5-77v1192" stroke="#fff"/><path d="m674.5-77v1192" stroke="#fff"/><path d="m866.5-77v1192" stroke="#fff"/><path d="m1058.5-77v1192" stroke="#fff"/><path d="m1250.5-77v1192" stroke="#fff"/><path d="m1442.5-77v1192" stroke="#fff"/><path d="m1634.5-77v1192" stroke="#fff"/><path d="m1826.5-77v1192" stroke="#fff"/></g></svg>